<mxfile host="Electron" modified="2023-10-31T16:16:29.529Z" agent="Mozilla/5.0 (Macintosh; Intel Mac OS X 10_15_7) AppleWebKit/537.36 (KHTML, like Gecko) draw.io/22.0.2 Chrome/114.0.5735.289 Electron/25.8.4 Safari/537.36" etag="r6pIKpk0y4ASBf2XtXlj" version="22.0.2" type="device">
  <diagram name="Page-1" id="DLsleFEsTTNoL87kP0La">
    <mxGraphModel dx="1774" dy="1254" grid="0" gridSize="10" guides="1" tooltips="1" connect="1" arrows="1" fold="1" page="1" pageScale="1" pageWidth="850" pageHeight="1100" math="0" shadow="0">
      <root>
        <mxCell id="0" />
        <mxCell id="1" parent="0" />
        <mxCell id="utLtorW2GP0ahkeXiwqq-42" value="Views" style="text;html=1;strokeColor=none;fillColor=none;align=left;verticalAlign=middle;whiteSpace=wrap;rounded=0;fontSize=24;fontStyle=5" parent="1" vertex="1">
          <mxGeometry x="897" y="91" width="234" height="30" as="geometry" />
        </mxCell>
        <mxCell id="utLtorW2GP0ahkeXiwqq-43" value="When client sends HTTP request, it includes the URL in it.&amp;nbsp;&lt;br&gt;&lt;br&gt;Django searches for that URL in&amp;nbsp;&lt;i&gt;url.py &lt;/i&gt;files,&lt;span style=&quot;background-color: initial;&quot;&gt;&amp;nbsp;where you define what URLs to listen for and what to do for each URL.&lt;/span&gt;&lt;br&gt;&lt;br&gt;What to do for each URL is defined in a &lt;b&gt;&lt;u&gt;view.&lt;/u&gt;&lt;/b&gt;&lt;br&gt;&lt;br&gt;&lt;u style=&quot;font-weight: bold;&quot;&gt;View&lt;/u&gt;&lt;b&gt; - django functions that take HTTP requests and return HTTP responses.&lt;/b&gt;&lt;br&gt;&lt;br&gt;&lt;i&gt;Views are necessary because requests may also contain parameters. e.g. a word that you want to get rhymes for.&lt;/i&gt;" style="text;html=1;strokeColor=none;fillColor=none;align=left;verticalAlign=middle;whiteSpace=wrap;rounded=0;" parent="1" vertex="1">
          <mxGeometry x="897" y="136" width="318" height="193" as="geometry" />
        </mxCell>
        <mxCell id="utLtorW2GP0ahkeXiwqq-46" value="Template - &quot;fake&quot; html pages with placeholders for content.&lt;br&gt;&lt;br&gt;Views takes templates, add content to it then generate real html pages which get returned as an HTTP response." style="text;html=1;strokeColor=none;fillColor=none;align=left;verticalAlign=middle;whiteSpace=wrap;rounded=0;" parent="1" vertex="1">
          <mxGeometry x="897" y="444" width="318" height="93.5" as="geometry" />
        </mxCell>
        <mxCell id="utLtorW2GP0ahkeXiwqq-47" value="Templates" style="text;html=1;strokeColor=none;fillColor=none;align=left;verticalAlign=middle;whiteSpace=wrap;rounded=0;fontSize=24;fontStyle=5" parent="1" vertex="1">
          <mxGeometry x="897" y="406" width="234" height="30" as="geometry" />
        </mxCell>
        <mxCell id="bYlMmFFv--fDMVJenHE9-8" value="" style="group;aspect=fixed;" vertex="1" connectable="0" parent="1">
          <mxGeometry x="72" y="500" width="387" height="328" as="geometry" />
        </mxCell>
        <mxCell id="utLtorW2GP0ahkeXiwqq-21" value="&lt;font style=&quot;font-size: 14px;&quot;&gt;Client&lt;br&gt;&lt;span style=&quot;white-space: pre;&quot;&gt;&#x9;&lt;/span&gt;what the user is using to access your webapp. &lt;br&gt;&lt;span style=&quot;white-space: pre;&quot;&gt;&amp;nbsp;&amp;nbsp;&amp;nbsp;&amp;nbsp;&lt;span style=&quot;white-space: pre;&quot;&gt;&#x9;&lt;/span&gt;&lt;/span&gt;e.g. Google Chrome&lt;br&gt;&lt;br&gt;App&lt;br&gt;&lt;span style=&quot;white-space: pre;&quot;&gt;&#x9;&lt;/span&gt;the software that makes up your website. (the &quot;brain&quot;)&lt;br&gt;&lt;br&gt;HTTP&lt;br&gt;&lt;span style=&quot;white-space: pre;&quot;&gt;&#x9;&lt;/span&gt;how clients and apps talk to each other&lt;br&gt;&lt;br&gt;Two types of HTTP messages:&lt;br style=&quot;&quot;&gt;&lt;/font&gt;&lt;blockquote style=&quot;border: none; margin: 0px 0px 0px 40px; padding: 0px; font-size: 14px;&quot;&gt;&lt;font style=&quot;font-size: 14px;&quot;&gt;1. HTTP Request - client to app&lt;br&gt;2. HTTP Response - app to client&lt;/font&gt;&lt;/blockquote&gt;&lt;font style=&quot;font-size: 14px;&quot;&gt;&lt;br style=&quot;&quot;&gt;&lt;i style=&quot;&quot;&gt;Apps cannot speak unless spoken to.&lt;/i&gt;&lt;/font&gt;" style="text;html=1;strokeColor=none;fillColor=none;align=left;verticalAlign=middle;whiteSpace=wrap;rounded=0;" parent="bYlMmFFv--fDMVJenHE9-8" vertex="1">
          <mxGeometry y="56" width="381" height="264" as="geometry" />
        </mxCell>
        <mxCell id="utLtorW2GP0ahkeXiwqq-41" value="HTTP" style="text;html=1;strokeColor=none;fillColor=none;align=center;verticalAlign=middle;whiteSpace=wrap;rounded=0;fontSize=24;fontStyle=5" parent="bYlMmFFv--fDMVJenHE9-8" vertex="1">
          <mxGeometry width="60" height="30" as="geometry" />
        </mxCell>
        <mxCell id="bYlMmFFv--fDMVJenHE9-10" value="" style="group" vertex="1" connectable="0" parent="1">
          <mxGeometry x="74" y="96" width="570" height="319" as="geometry" />
        </mxCell>
        <mxCell id="utLtorW2GP0ahkeXiwqq-27" value="&lt;font style=&quot;font-size: 14px;&quot;&gt;A URL has 3 parts:&lt;br&gt;&lt;br&gt;&lt;/font&gt;&lt;blockquote style=&quot;margin: 0 0 0 40px; border: none; padding: 0px;&quot;&gt;&lt;font style=&quot;font-size: 14px;&quot;&gt;1. protocol - what protocol to use&lt;br&gt;&lt;/font&gt;&lt;font style=&quot;font-size: 14px;&quot;&gt;&lt;u&gt;&lt;span style=&quot;white-space: pre;&quot;&gt;&#x9;&lt;/span&gt;https://&lt;/u&gt;&lt;/font&gt;&lt;/blockquote&gt;&lt;font style=&quot;font-size: 14px;&quot;&gt;&lt;br&gt;&lt;/font&gt;&lt;blockquote style=&quot;margin: 0 0 0 40px; border: none; padding: 0px;&quot;&gt;&lt;font style=&quot;font-size: 14px;&quot;&gt;2. domain name - the address of the website&amp;nbsp;&lt;br&gt;&lt;/font&gt;&lt;font style=&quot;font-size: 14px;&quot;&gt;&lt;span style=&quot;white-space: pre;&quot;&gt;&#x9;&lt;/span&gt;&lt;u&gt;www.songbuddy.com&lt;br&gt;&lt;/u&gt;&lt;/font&gt;&lt;/blockquote&gt;&lt;font style=&quot;font-size: 14px;&quot;&gt;&lt;br&gt;&lt;/font&gt;&lt;blockquote style=&quot;margin: 0 0 0 40px; border: none; padding: 0px;&quot;&gt;&lt;font style=&quot;font-size: 14px;&quot;&gt;3. path - what page on the website&lt;br&gt;&lt;/font&gt;&lt;font style=&quot;font-size: 14px;&quot;&gt;&lt;span style=&quot;white-space: pre;&quot;&gt;&#x9;&lt;/span&gt;&lt;u&gt;/page/&lt;/u&gt;&lt;/font&gt;&lt;/blockquote&gt;&lt;font style=&quot;font-size: 14px;&quot;&gt;&lt;br&gt;When you type &lt;u&gt;https://www.songbuddy.com/page/&lt;/u&gt;&amp;nbsp;into a browser, you are telling the browser:&lt;br&gt;&lt;br&gt;&lt;/font&gt;&lt;blockquote style=&quot;margin: 0 0 0 40px; border: none; padding: 0px;&quot;&gt;&lt;font style=&quot;font-size: 14px;&quot;&gt;&lt;i&gt;&quot;Use this protocol to tell the website at this domain to give me this page&quot;&lt;/i&gt;&lt;/font&gt;&lt;/blockquote&gt;" style="text;html=1;strokeColor=none;fillColor=none;align=left;verticalAlign=middle;whiteSpace=wrap;rounded=0;" parent="bYlMmFFv--fDMVJenHE9-10" vertex="1">
          <mxGeometry x="-2" y="55" width="349" height="264" as="geometry" />
        </mxCell>
        <mxCell id="utLtorW2GP0ahkeXiwqq-39" value="URLs" style="text;html=1;strokeColor=none;fillColor=none;align=center;verticalAlign=middle;whiteSpace=wrap;rounded=0;fontSize=24;fontStyle=5" parent="bYlMmFFv--fDMVJenHE9-10" vertex="1">
          <mxGeometry width="60" height="30" as="geometry" />
        </mxCell>
        <mxCell id="utLtorW2GP0ahkeXiwqq-36" value="User" style="shape=umlActor;verticalLabelPosition=bottom;verticalAlign=top;html=1;outlineConnect=0;container=0;" parent="1" vertex="1">
          <mxGeometry x="494" y="159" width="30" height="60" as="geometry" />
        </mxCell>
        <mxCell id="utLtorW2GP0ahkeXiwqq-37" value="Client" style="rounded=0;whiteSpace=wrap;html=1;fillColor=#0050ef;fontColor=#ffffff;strokeColor=#001DBC;container=0;" parent="1" vertex="1">
          <mxGeometry x="636" y="159" width="120" height="60" as="geometry" />
        </mxCell>
        <mxCell id="utLtorW2GP0ahkeXiwqq-34" value="" style="edgeStyle=orthogonalEdgeStyle;rounded=0;orthogonalLoop=1;jettySize=auto;html=1;" parent="1" source="utLtorW2GP0ahkeXiwqq-36" target="utLtorW2GP0ahkeXiwqq-37" edge="1">
          <mxGeometry relative="1" as="geometry" />
        </mxCell>
        <mxCell id="utLtorW2GP0ahkeXiwqq-35" value="URL" style="edgeLabel;html=1;align=center;verticalAlign=middle;resizable=0;points=[];container=0;" parent="utLtorW2GP0ahkeXiwqq-34" vertex="1" connectable="0">
          <mxGeometry x="-0.0947" y="-1" relative="1" as="geometry">
            <mxPoint as="offset" />
          </mxGeometry>
        </mxCell>
        <mxCell id="bYlMmFFv--fDMVJenHE9-12" value="" style="group" vertex="1" connectable="0" parent="1">
          <mxGeometry x="500" y="543" width="258" height="221" as="geometry" />
        </mxCell>
        <mxCell id="utLtorW2GP0ahkeXiwqq-20" value="App" style="rounded=0;whiteSpace=wrap;html=1;fillColor=#0050ef;fontColor=#ffffff;strokeColor=#001DBC;" parent="bYlMmFFv--fDMVJenHE9-12" vertex="1">
          <mxGeometry x="138" y="161" width="120" height="60" as="geometry" />
        </mxCell>
        <mxCell id="utLtorW2GP0ahkeXiwqq-22" style="edgeStyle=orthogonalEdgeStyle;rounded=0;orthogonalLoop=1;jettySize=auto;html=1;entryX=0.5;entryY=0;entryDx=0;entryDy=0;startArrow=classic;startFill=1;" parent="bYlMmFFv--fDMVJenHE9-12" source="utLtorW2GP0ahkeXiwqq-15" target="utLtorW2GP0ahkeXiwqq-20" edge="1">
          <mxGeometry relative="1" as="geometry" />
        </mxCell>
        <mxCell id="utLtorW2GP0ahkeXiwqq-23" value="HTTP Messages" style="edgeLabel;html=1;align=center;verticalAlign=middle;resizable=0;points=[];" parent="utLtorW2GP0ahkeXiwqq-22" vertex="1" connectable="0">
          <mxGeometry x="-0.0375" y="-3" relative="1" as="geometry">
            <mxPoint as="offset" />
          </mxGeometry>
        </mxCell>
        <mxCell id="utLtorW2GP0ahkeXiwqq-15" value="Client" style="rounded=0;whiteSpace=wrap;html=1;fillColor=#0050ef;fontColor=#ffffff;strokeColor=#001DBC;" parent="bYlMmFFv--fDMVJenHE9-12" vertex="1">
          <mxGeometry x="138" width="120" height="60" as="geometry" />
        </mxCell>
        <mxCell id="utLtorW2GP0ahkeXiwqq-32" value="" style="edgeStyle=orthogonalEdgeStyle;rounded=0;orthogonalLoop=1;jettySize=auto;html=1;" parent="bYlMmFFv--fDMVJenHE9-12" source="utLtorW2GP0ahkeXiwqq-25" target="utLtorW2GP0ahkeXiwqq-15" edge="1">
          <mxGeometry relative="1" as="geometry" />
        </mxCell>
        <mxCell id="utLtorW2GP0ahkeXiwqq-33" value="URL" style="edgeLabel;html=1;align=center;verticalAlign=middle;resizable=0;points=[];" parent="utLtorW2GP0ahkeXiwqq-32" vertex="1" connectable="0">
          <mxGeometry x="-0.0947" y="-1" relative="1" as="geometry">
            <mxPoint as="offset" />
          </mxGeometry>
        </mxCell>
        <mxCell id="utLtorW2GP0ahkeXiwqq-25" value="User" style="shape=umlActor;verticalLabelPosition=bottom;verticalAlign=top;html=1;outlineConnect=0;" parent="bYlMmFFv--fDMVJenHE9-12" vertex="1">
          <mxGeometry width="30" height="60" as="geometry" />
        </mxCell>
        <mxCell id="utLtorW2GP0ahkeXiwqq-2" value="View" style="rounded=0;whiteSpace=wrap;html=1;fillColor=#008a00;fontColor=#ffffff;strokeColor=#005700;" parent="1" vertex="1">
          <mxGeometry x="1296" y="406.5" width="120" height="60" as="geometry" />
        </mxCell>
        <mxCell id="utLtorW2GP0ahkeXiwqq-48" value="Template" style="rounded=0;whiteSpace=wrap;html=1;" parent="1" vertex="1">
          <mxGeometry x="1346" y="497.5" width="90" height="40" as="geometry" />
        </mxCell>
        <mxCell id="utLtorW2GP0ahkeXiwqq-58" style="edgeStyle=orthogonalEdgeStyle;rounded=0;orthogonalLoop=1;jettySize=auto;html=1;dashed=1;" parent="1" source="utLtorW2GP0ahkeXiwqq-2" target="utLtorW2GP0ahkeXiwqq-48" edge="1">
          <mxGeometry relative="1" as="geometry" />
        </mxCell>
        <mxCell id="utLtorW2GP0ahkeXiwqq-63" value="uses" style="edgeLabel;html=1;align=center;verticalAlign=middle;resizable=0;points=[];" parent="utLtorW2GP0ahkeXiwqq-58" vertex="1" connectable="0">
          <mxGeometry x="-0.2807" y="2" relative="1" as="geometry">
            <mxPoint as="offset" />
          </mxGeometry>
        </mxCell>
        <mxCell id="utLtorW2GP0ahkeXiwqq-49" value="App" style="rounded=0;whiteSpace=wrap;html=1;fillColor=#0050ef;fontColor=#ffffff;strokeColor=#001DBC;" parent="1" vertex="1">
          <mxGeometry x="1296" y="144.5" width="120" height="60" as="geometry" />
        </mxCell>
        <mxCell id="utLtorW2GP0ahkeXiwqq-61" style="edgeStyle=orthogonalEdgeStyle;rounded=0;orthogonalLoop=1;jettySize=auto;html=1;" parent="1" source="utLtorW2GP0ahkeXiwqq-50" target="utLtorW2GP0ahkeXiwqq-2" edge="1">
          <mxGeometry relative="1" as="geometry" />
        </mxCell>
        <mxCell id="utLtorW2GP0ahkeXiwqq-62" value="pass request to" style="edgeLabel;html=1;align=center;verticalAlign=middle;resizable=0;points=[];" parent="utLtorW2GP0ahkeXiwqq-61" vertex="1" connectable="0">
          <mxGeometry x="-0.1043" y="-1" relative="1" as="geometry">
            <mxPoint as="offset" />
          </mxGeometry>
        </mxCell>
        <mxCell id="utLtorW2GP0ahkeXiwqq-50" value="urls.py" style="rounded=0;whiteSpace=wrap;html=1;" parent="1" vertex="1">
          <mxGeometry x="1296" y="295.5" width="120" height="60" as="geometry" />
        </mxCell>
        <mxCell id="utLtorW2GP0ahkeXiwqq-51" style="edgeStyle=orthogonalEdgeStyle;rounded=0;orthogonalLoop=1;jettySize=auto;html=1;" parent="1" source="utLtorW2GP0ahkeXiwqq-49" target="utLtorW2GP0ahkeXiwqq-50" edge="1">
          <mxGeometry relative="1" as="geometry" />
        </mxCell>
        <mxCell id="utLtorW2GP0ahkeXiwqq-52" value="search for &lt;br&gt;matching views" style="edgeLabel;html=1;align=center;verticalAlign=middle;resizable=0;points=[];" parent="utLtorW2GP0ahkeXiwqq-51" vertex="1" connectable="0">
          <mxGeometry x="0.0063" y="-2" relative="1" as="geometry">
            <mxPoint as="offset" />
          </mxGeometry>
        </mxCell>
        <mxCell id="utLtorW2GP0ahkeXiwqq-60" value="Client" style="rounded=0;whiteSpace=wrap;html=1;fillColor=#0050ef;fontColor=#ffffff;strokeColor=#001DBC;" parent="1" vertex="1">
          <mxGeometry x="1549" y="144.5" width="120" height="60" as="geometry" />
        </mxCell>
        <mxCell id="utLtorW2GP0ahkeXiwqq-64" style="edgeStyle=orthogonalEdgeStyle;rounded=0;orthogonalLoop=1;jettySize=auto;html=1;exitX=1;exitY=0.5;exitDx=0;exitDy=0;" parent="1" source="utLtorW2GP0ahkeXiwqq-2" target="utLtorW2GP0ahkeXiwqq-60" edge="1">
          <mxGeometry relative="1" as="geometry">
            <mxPoint x="1433" y="428.5" as="sourcePoint" />
            <mxPoint x="1601" y="428.5" as="targetPoint" />
            <Array as="points">
              <mxPoint x="1416" y="440.5" />
            </Array>
          </mxGeometry>
        </mxCell>
        <mxCell id="utLtorW2GP0ahkeXiwqq-65" value="HTTP response&lt;br&gt;(containing &lt;br&gt;html page)" style="edgeLabel;html=1;align=center;verticalAlign=middle;resizable=0;points=[];" parent="utLtorW2GP0ahkeXiwqq-64" vertex="1" connectable="0">
          <mxGeometry x="-0.1721" relative="1" as="geometry">
            <mxPoint x="11" y="-4" as="offset" />
          </mxGeometry>
        </mxCell>
      </root>
    </mxGraphModel>
  </diagram>
</mxfile>
